<?xml version="1.0" encoding="UTF-8" standalone="no"?><!DOCTYPE svg PUBLIC "-//W3C//DTD SVG 1.1//EN" "http://www.w3.org/Graphics/SVG/1.1/DTD/svg11.dtd"><svg width="100%" height="100%" viewBox="0 0 503 503" version="1.1" xmlns="http://www.w3.org/2000/svg" xmlns:xlink="http://www.w3.org/1999/xlink" xml:space="preserve" xmlns:serif="http://www.serif.com/" style="fill-rule:evenodd;clip-rule:evenodd;stroke-linejoin:round;stroke-miterlimit:2;"><g><path d="M459.4,373.2l-208,122.4l-208,-122.4l-0,-243.2l208,-122.4l208,122.4l-0,243.2Z" style="fill:#00fbff;fill-rule:nonzero;"/><path d="M43.4,371.6l0,-241.6l211.2,-123.2" style="fill:#cff;fill-rule:nonzero;"/><path d="M459.4,131.6l-0,241.6l-211.2,123.2" style="fill:#00aaac;fill-rule:nonzero;"/><path d="M251.4,503.6c-1.6,0 -2.4,0 -4,-0.8l-209.6,-122.4c-2.4,-1.6 -2.4,-4 -2.4,-7.2l-0,-243.2c-0,-3.2 -0,-5.6 2.4,-7.2l210.4,-121.6c2.4,-1.6 4.8,-1.6 8,0l209.6,121.6c2.4,1.6 2.4,4 2.4,7.2l-0,244c-0,3.2 -0,5.6 -2.4,7.2l-211.2,120.8c-0.8,0.8 -1.6,1.6 -3.2,1.6Zm-200,-134.4l200,117.6l200,-117.6l-0,-235.2l-200,-116.8l-200,116.8l-0,235.2Z" style="fill:#007577;fill-rule:nonzero;"/><path d="M251.4,258.8c-1.6,0 -2.4,0 -4,-0.8l-204,-117.6c-4,-2.4 -6.4,-8.8 -4,-12.8c2.4,-4 6.4,-4 10.4,-2.4l201.6,116.8l203.2,-117.6c4,-2.4 8,0 9.6,3.2c2.4,4 -0.8,9.6 -4.8,12l-204,118.4c-1.6,0.8 -2.4,0.8 -4,0.8Z" style="fill:#007577;fill-rule:nonzero;"/><path d="M251.4,497.2c-4.8,0 -8,-3.2 -8,-8l0,-239.2c0,-4.8 3.2,-8 8,-8c4.8,0 8,3.2 8,8l0,239.2c0,4 -3.2,8 -8,8Z" style="fill:#007577;fill-rule:nonzero;"/></g></svg>